<svg id="Capa_1" data-name="Capa 1" xmlns="http://www.w3.org/2000/svg" xmlns:xlink="http://www.w3.org/1999/xlink" viewBox="0 0 305.99 166.64"><defs><style>.cls-1{fill:#fff;}</style><symbol id="_1" data-name="1" viewBox="0 0 305.99 118.59"><path class="cls-1" d="M115.41,118.59h-33V0H147V32.8H115.41V50.23H147V82.86H115.41v35.73Z"/><path class="cls-1" d="M194.91,118.59h-33V0h64.58V32.8H194.91V50.23h31.58V82.86H194.91v35.73Z"/><path class="cls-1" d="M274.42,118.59h-33V0H306V32.8H274.41V50.23H306V82.86H274.42v35.73Z"/><path class="cls-1" d="M36.55,58.91c-4,0-12.95,0-17,0V42.59l13-15.35H3V0H67.46V21.5c-5.2,6.22-10.4,12.35-15.7,18.69,2.38,1.09,4.54,1.93,6.56,3,9.15,4.95,14.15,12.66,14.15,23.07,0,26.47-20,34.6-36.16,34.6,0,0-36.3,0-36.3-34.06H27.47s-0.24,6.6,8.59,6.6,8.75-6.75,8.75-6.75S46,58.91,36.55,58.91Z"/></symbol></defs><title>marca</title><use id="_1-3" data-name="1" width="305.99" height="118.59" xlink:href="#_1"/><path class="cls-1" d="M441.71,491V494h4.52a0.46,0.46,0,0,1,.5.5v2.09a0.46,0.46,0,0,1-.5.5h-4.52v4.46a0.46,0.46,0,0,1-.5.5H439a0.46,0.46,0,0,1-.5-0.5V488.44a0.45,0.45,0,0,1,.5-0.5h7.34a0.46,0.46,0,0,1,.5.5v2.09a0.46,0.46,0,0,1-.5.5h-4.62Z" transform="translate(-437.28 -335.66)"/><path class="cls-1" d="M450.35,487.94h2.21a0.46,0.46,0,0,1,.5.5v13.07a0.46,0.46,0,0,1-.5.5h-2.21a0.46,0.46,0,0,1-.5-0.5V488.44A0.45,0.45,0,0,1,450.35,487.94Z" transform="translate(-437.28 -335.66)"/><path class="cls-1" d="M464.73,499.42v2.09a0.46,0.46,0,0,1-.5.5h-7a0.46,0.46,0,0,1-.5-0.5V488.44a0.45,0.45,0,0,1,.5-0.5h2.21a0.46,0.46,0,0,1,.5.5v10.48h4.32A0.46,0.46,0,0,1,464.73,499.42Z" transform="translate(-437.28 -335.66)"/><path class="cls-1" d="M474.59,488.44v2.09a0.46,0.46,0,0,1-.5.5h-2.71v10.48a0.46,0.46,0,0,1-.5.5h-2.21a0.46,0.46,0,0,1-.5-0.5V491h-2.71a0.46,0.46,0,0,1-.5-0.5v-2.09a0.46,0.46,0,0,1,.5-0.5h8.65A0.46,0.46,0,0,1,474.59,488.44Z" transform="translate(-437.28 -335.66)"/><path class="cls-1" d="M488.28,502h-2.57a0.7,0.7,0,0,1-.62-0.3l-3.43-4.32h-1.24v4.12a0.46,0.46,0,0,1-.5.5H477.7a0.46,0.46,0,0,1-.5-0.5V488.44a0.46,0.46,0,0,1,.5-0.5h4.93a4.82,4.82,0,0,1,4.83,4.83,4.66,4.66,0,0,1-2.49,4l3.62,4.59C488.85,501.72,488.7,502,488.28,502Zm-7.86-7.44h2.21a1.82,1.82,0,0,0,0-3.62h-2.21v3.62Z" transform="translate(-437.28 -335.66)"/><path class="cls-1" d="M489.87,495a7.32,7.32,0,1,1,7.32,7.32A7.26,7.26,0,0,1,489.87,495Zm11.42,0a4.1,4.1,0,1,0-4.1,4.18A4,4,0,0,0,501.29,495Z" transform="translate(-437.28 -335.66)"/><path class="cls-1" d="M506.64,498.12a0.45,0.45,0,0,1,.5-0.52h2.21a0.5,0.5,0,0,1,.52.48c0.16,0.72.76,1.09,2,1.09s1.73-.5,1.73-1.09c0-.82-1-1.19-2.23-1.61-2-.68-4.5-1.51-4.5-4.58,0-2.82,2.29-4.22,4.69-4.22s4.61,1.27,4.85,4.18a0.45,0.45,0,0,1-.5.52h-2.21a0.49,0.49,0,0,1-.52-0.48,1.39,1.39,0,0,0-1.61-1.09,1.22,1.22,0,0,0-1.47,1.09c0,0.84.82,1.25,2,1.67,2,0.7,4.75,1.43,4.75,4.53,0,2.82-2.25,4.22-4.95,4.22S506.88,501,506.64,498.12Z" transform="translate(-437.28 -335.66)"/><path class="cls-1" d="M525.83,501.52V499.3a0.46,0.46,0,0,1,.5-0.5h2.21a0.46,0.46,0,0,1,.5.5v2.21a0.46,0.46,0,0,1-.5.5h-2.21A0.46,0.46,0,0,1,525.83,501.52Z" transform="translate(-437.28 -335.66)"/><path class="cls-1" d="M542,501.6l-4.08-13.09a0.39,0.39,0,0,1,.42-0.56h2.47a0.52,0.52,0,0,1,.56.42l2.8,9.93,2.8-9.93a0.52,0.52,0,0,1,.56-0.42H550a0.39,0.39,0,0,1,.42.56L546.3,501.6a0.54,0.54,0,0,1-.56.42h-3.22A0.54,0.54,0,0,1,542,501.6Z" transform="translate(-437.28 -335.66)"/><path class="cls-1" d="M561.43,499.42v2.09a0.46,0.46,0,0,1-.5.5h-7.44a0.46,0.46,0,0,1-.5-0.5V488.44a0.45,0.45,0,0,1,.5-0.5h7.34a0.46,0.46,0,0,1,.5.5v2.09a0.46,0.46,0,0,1-.5.5H556.2v2.35h4.12a0.46,0.46,0,0,1,.5.5v2a0.46,0.46,0,0,1-.5.5H556.2v2.51h4.73A0.46,0.46,0,0,1,561.43,499.42Z" transform="translate(-437.28 -335.66)"/><path class="cls-1" d="M572.39,487.94h2.21a0.46,0.46,0,0,1,.5.5v13.07a0.46,0.46,0,0,1-.5.5h-1.51a0.7,0.7,0,0,1-.62-0.32l-4.81-7.52v7.34a0.46,0.46,0,0,1-.5.5h-2.21a0.46,0.46,0,0,1-.5-0.5V488.44a0.45,0.45,0,0,1,.5-0.5h1.51a0.7,0.7,0,0,1,.62.32l4.81,7.52v-7.34A0.46,0.46,0,0,1,572.39,487.94Z" transform="translate(-437.28 -335.66)"/><path class="cls-1" d="M587.37,488.44v2.09a0.46,0.46,0,0,1-.5.5h-2.71v10.48a0.46,0.46,0,0,1-.5.5h-2.21a0.46,0.46,0,0,1-.5-0.5V491h-2.71a0.46,0.46,0,0,1-.5-0.5v-2.09a0.46,0.46,0,0,1,.5-0.5h8.65A0.46,0.46,0,0,1,587.37,488.44Z" transform="translate(-437.28 -335.66)"/><path class="cls-1" d="M600.44,502H598a0.52,0.52,0,0,1-.56-0.42l-0.53-1.79h-4.94l-0.53,1.79a0.52,0.52,0,0,1-.56.42h-2.47a0.39,0.39,0,0,1-.42-0.56l4.26-13.09a0.56,0.56,0,0,1,.58-0.42H596a0.57,0.57,0,0,1,.58.42l4.26,13.09A0.39,0.39,0,0,1,600.44,502ZM596,496.79l-1.58-5.33-1.58,5.33H596Z" transform="translate(-437.28 -335.66)"/><path class="cls-1" d="M602.47,498.12a0.45,0.45,0,0,1,.5-0.52h2.21a0.5,0.5,0,0,1,.52.48c0.16,0.72.76,1.09,2,1.09s1.73-.5,1.73-1.09c0-.82-1-1.19-2.23-1.61-2-.68-4.5-1.51-4.5-4.58,0-2.82,2.29-4.22,4.69-4.22s4.61,1.27,4.85,4.18a0.45,0.45,0,0,1-.5.52h-2.21a0.49,0.49,0,0,1-.52-0.48,1.39,1.39,0,0,0-1.61-1.09,1.22,1.22,0,0,0-1.47,1.09c0,0.84.82,1.25,2,1.67,2,0.7,4.75,1.43,4.75,4.53,0,2.82-2.25,4.22-4.95,4.22S602.71,501,602.47,498.12Z" transform="translate(-437.28 -335.66)"/><path class="cls-1" d="M621.66,501.52V499.3a0.46,0.46,0,0,1,.5-0.5h2.21a0.46,0.46,0,0,1,.5.5v2.21a0.46,0.46,0,0,1-.5.5h-2.21A0.46,0.46,0,0,1,621.66,501.52Z" transform="translate(-437.28 -335.66)"/><path class="cls-1" d="M633.94,498.12a0.45,0.45,0,0,1,.5-0.52h2.21a0.5,0.5,0,0,1,.52.48c0.16,0.72.76,1.09,2,1.09s1.73-.5,1.73-1.09c0-.82-1-1.19-2.23-1.61-2-.68-4.5-1.51-4.5-4.58,0-2.82,2.29-4.22,4.69-4.22s4.61,1.27,4.85,4.18a0.45,0.45,0,0,1-.5.52h-2.21a0.49,0.49,0,0,1-.52-0.48,1.39,1.39,0,0,0-1.61-1.09,1.22,1.22,0,0,0-1.47,1.09c0,0.84.82,1.25,2,1.67,2,0.7,4.75,1.43,4.75,4.53,0,2.82-2.25,4.22-4.95,4.22S634.19,501,633.94,498.12Z" transform="translate(-437.28 -335.66)"/><path class="cls-1" d="M655.34,499.42v2.09a0.46,0.46,0,0,1-.5.5H647.4a0.46,0.46,0,0,1-.5-0.5V488.44a0.45,0.45,0,0,1,.5-0.5h7.34a0.46,0.46,0,0,1,.5.5v2.09a0.46,0.46,0,0,1-.5.5h-4.62v2.35h4.12a0.46,0.46,0,0,1,.5.5v2a0.46,0.46,0,0,1-.5.5h-4.12v2.51h4.73A0.46,0.46,0,0,1,655.34,499.42Z" transform="translate(-437.28 -335.66)"/><path class="cls-1" d="M669.44,502h-2.57a0.7,0.7,0,0,1-.62-0.3l-3.43-4.32h-1.24v4.12a0.46,0.46,0,0,1-.5.5h-2.21a0.46,0.46,0,0,1-.5-0.5V488.44a0.46,0.46,0,0,1,.5-0.5h4.93a4.82,4.82,0,0,1,4.83,4.83,4.66,4.66,0,0,1-2.49,4l3.62,4.59C670,501.72,669.86,502,669.44,502Zm-7.86-7.44h2.21a1.82,1.82,0,0,0,0-3.62h-2.21v3.62Z" transform="translate(-437.28 -335.66)"/><path class="cls-1" d="M674.49,501.6l-4.08-13.09a0.39,0.39,0,0,1,.42-0.56h2.47a0.52,0.52,0,0,1,.56.42l2.8,9.93,2.8-9.93a0.52,0.52,0,0,1,.56-0.42h2.47a0.39,0.39,0,0,1,.42.56l-4.08,13.09a0.54,0.54,0,0,1-.56.42h-3.22A0.54,0.54,0,0,1,674.49,501.6Z" transform="translate(-437.28 -335.66)"/><path class="cls-1" d="M686,487.94h2.21a0.46,0.46,0,0,1,.5.5v13.07a0.46,0.46,0,0,1-.5.5H686a0.46,0.46,0,0,1-.5-0.5V488.44A0.45,0.45,0,0,1,686,487.94Z" transform="translate(-437.28 -335.66)"/><path class="cls-1" d="M691.74,495a7.14,7.14,0,0,1,7.32-7.32,6.91,6.91,0,0,1,6.78,4.95,0.42,0.42,0,0,1-.44.56H703a0.58,0.58,0,0,1-.56-0.4,3.61,3.61,0,0,0-3.4-2,4.18,4.18,0,0,0,0,8.37,3.61,3.61,0,0,0,3.4-2,0.58,0.58,0,0,1,.56-0.4h2.37a0.39,0.39,0,0,1,.44.52,6.89,6.89,0,0,1-6.78,5A7.14,7.14,0,0,1,691.74,495Z" transform="translate(-437.28 -335.66)"/><path class="cls-1" d="M709.08,487.94h2.21a0.46,0.46,0,0,1,.5.5v13.07a0.46,0.46,0,0,1-.5.5h-2.21a0.46,0.46,0,0,1-.5-0.5V488.44A0.45,0.45,0,0,1,709.08,487.94Z" transform="translate(-437.28 -335.66)"/><path class="cls-1" d="M714.81,495a7.32,7.32,0,1,1,7.32,7.32A7.26,7.26,0,0,1,714.81,495Zm11.42,0a4.1,4.1,0,1,0-4.1,4.18A4,4,0,0,0,726.23,495Z" transform="translate(-437.28 -335.66)"/><path class="cls-1" d="M731.58,498.12a0.45,0.45,0,0,1,.5-0.52h2.21a0.5,0.5,0,0,1,.52.48c0.16,0.72.76,1.09,2,1.09s1.73-.5,1.73-1.09c0-.82-1-1.19-2.23-1.61-2-.68-4.5-1.51-4.5-4.58,0-2.82,2.29-4.22,4.69-4.22s4.61,1.27,4.85,4.18a0.45,0.45,0,0,1-.5.52h-2.21a0.49,0.49,0,0,1-.52-0.48,1.39,1.39,0,0,0-1.61-1.09,1.22,1.22,0,0,0-1.47,1.09c0,0.84.82,1.25,2,1.67,2,0.7,4.75,1.43,4.75,4.53,0,2.82-2.25,4.22-4.95,4.22S731.83,501,731.58,498.12Z" transform="translate(-437.28 -335.66)"/></svg>